<svg xmlns="http://www.w3.org/2000/svg" width="25" height="25" viewBox="0 0 48 48">
  <path fill="#EA4335" d="M24 9.5c3.94 0 7.47 1.35 10.26 3.57l7.61-7.61C37.24 1.93 31.08 0 24 0 14.63 0 6.41 4.94 1.99 12.19l8.91 6.93C12.57 13.15 17.84 9.5 24 9.5z"/>
  <path fill="#34A853" d="M46.15 24.5c0-1.61-.15-3.16-.43-4.65H24v9.11h12.44c-.54 2.92-2.17 5.39-4.64 7.07l7.24 5.63C43.67 37.6 46.15 31.47 46.15 24.5z"/>
  <path fill="#FBBC05" d="M10.9 28.88a14.44 14.44 0 0 1-.78-4.38c0-1.52.27-2.99.78-4.38v-7.93H1.99A23.9 23.9 0 0 0 0 24.5c0 3.87.9 7.54 2.49 10.79l8.41-6.41z"/>
  <path fill="#4285F4" d="M24 48c6.5 0 11.95-2.15 15.93-5.9l-7.24-5.63c-2.01 1.35-4.59 2.13-8.69 2.13-6.16 0-11.43-3.65-13.72-8.78l-8.91 6.93C6.41 43.06 14.63 48 24 48z"/>
</svg>
